<svg xmlns="http://www.w3.org/2000/svg" width="143.80469" height="42.1582" viewBox="0 0 143.80469 42.1582">
  <defs>
    <style>
      .cls-1 {
        fill: #f15a24;
      }
    </style>
  </defs>
  <title>Asset 2</title>
  <g id="Layer_2" data-name="Layer 2">
    <g id="Layer_1-2" data-name="Layer 1">
      <path class="cls-1" d="M0,.58545H9.544q4.97607,0,7.26074,2.313,2.28369,2.31372,2.28369,7.11426v2.51757q0,6.38306-4.21582,8.08057v.1167a5.03182,5.03182,0,0,1,3.3081,2.86914,14.45,14.45,0,0,1,.96631,5.79687V36.5957a27.39888,27.39888,0,0,0,.1167,2.83985,7.1042,7.1042,0,0,0,.58594,2.1372H13.2915a9.37413,9.37413,0,0,1-.46875-1.87353,28.09077,28.09077,0,0,1-.1167-3.16211V29.04248a6.36531,6.36531,0,0,0-.90771-3.92334,3.84309,3.84309,0,0,0-3.13281-1.1123H6.44043V41.57275H0ZM8.78271,18.15137a3.8642,3.8642,0,0,0,2.89844-.99512,4.70347,4.70347,0,0,0,.96631-3.33789V10.65674a5.20584,5.20584,0,0,0-.79053-3.2207,2.98752,2.98752,0,0,0-2.48877-.99512H6.44043V18.15137Z"/>
      <path class="cls-1" d="M23.59717.58545H41.16309V6.44092H30.0376V17.273h8.84179v5.85547H30.0376V35.71729H41.16309v5.85546H23.59717Z"/>
      <path class="cls-1" d="M46.87109,39.52344q-2.4309-2.63526-2.43017-7.43653V10.07129q0-4.801,2.43017-7.43652Q49.2998.00025,53.92676,0q4.62452,0,7.05566,2.63477Q63.41113,5.27,63.41211,10.07129v4.33252H57.32275V9.66113q0-3.80567-3.22021-3.80566-3.22119,0-3.2207,3.80566V32.55566q0,3.74781,3.2207,3.74707,3.219,0,3.22021-3.74707V26.29053h6.08936v5.79638q0,4.80249-2.42969,7.43653-2.4309,2.63452-7.05566,2.63476Q49.30078,42.1582,46.87109,39.52344Z"/>
      <path class="cls-1" d="M67.27686.58545h0a6.44042,6.44042,0,0,1,6.44043,6.44042v24.326l-3.22022.22223v9.99869H67.27686Z"/>
      <path class="cls-1" d="M78.51855.58545h9.48536q4.80028,0,7.20214,2.57617Q97.6062,5.739,97.60693,10.71533v4.04q0,4.97754-2.40088,7.55322-2.40161,2.57741-7.20214,2.57666H84.959v16.6875H78.51855Zm9.48536,18.44434a3.02946,3.02946,0,0,0,2.37158-.87842A4.45251,4.45251,0,0,0,91.166,15.165V10.30518a4.45337,4.45337,0,0,0-.79053-2.98633,3.02925,3.02925,0,0,0-2.37158-.87793H84.959V19.02979Z"/>
      <path class="cls-1" d="M101.11914.58545h9.54395q4.97607,0,7.26074,2.313,2.28369,2.31372,2.28369,7.11426v2.51757q0,6.38306-4.21582,8.08057v.1167a5.03182,5.03182,0,0,1,3.3081,2.86914,14.45,14.45,0,0,1,.96631,5.79687V36.5957a27.39888,27.39888,0,0,0,.1167,2.83985,7.1042,7.1042,0,0,0,.58594,2.1372h-6.55811a9.37413,9.37413,0,0,1-.46875-1.87353,28.0915,28.0915,0,0,1-.11669-3.16211V29.04248a6.3653,6.3653,0,0,0-.90772-3.92334,3.84309,3.84309,0,0,0-3.13281-1.1123h-2.2251V41.57275h-6.44043Zm8.78272,17.56592a3.86419,3.86419,0,0,0,2.89843-.99512,4.70347,4.70347,0,0,0,.96631-3.33789V10.65674a5.20584,5.20584,0,0,0-.79053-3.2207,2.98752,2.98752,0,0,0-2.48877-.99512h-2.92773V18.15137Z"/>
      <path class="cls-1" d="M126.76563,39.46484q-2.5188-2.69238-2.51807-7.61181V10.30518q0-4.91821,2.51807-7.61182Q129.28223.001,134.02588,0q4.74317,0,7.26074,2.69336,2.51733,2.69385,2.51807,7.61182V31.853q0,4.91821-2.51807,7.61181-2.51807,2.69385-7.26074,2.69336Q129.28345,42.1582,126.76563,39.46484Zm10.59814-7.20214V9.89551q0-4.04-3.33789-4.04-3.33692,0-3.3374,4.04V32.2627q0,4.04,3.3374,4.04Q137.36353,36.30273,137.36377,32.2627Z"/>
    </g>
  </g>
</svg>
