<svg xmlns="http://www.w3.org/2000/svg" width="117.71373" height="63.50461" viewBox="0 0 117.71373 63.50461">
  <defs>
    <style>
      .cls-1 {
        fill: #f15a24;
      }

      .cls-2 {
        fill: #fff;
      }
    </style>
  </defs>
  <title>link-icon</title>
  <g id="Layer_2" data-name="Layer 2">
    <g id="Layer_2-2" data-name="Layer 2">
      <rect class="cls-1" width="117.71373" height="63.50461" rx="11.22222"/>
      <g>
        <path class="cls-2" d="M58.10186,19.27782a9.82156,9.82156,0,0,0-3.70911,6.43426A10.82823,10.82823,0,0,1,53.56243,47.337h-21a10.8335,10.8335,0,0,1,0-21.667H45.3626a18.66549,18.66549,0,0,1,1.91443-7H32.56243a17.8335,17.8335,0,0,0,0,35.667h21a17.82207,17.82207,0,0,0,4.53943-35.0592Z"/>
        <path class="cls-2" d="M85.15179,9.16759h-21A17.82169,17.82169,0,0,0,59.638,44.233,9.82244,9.82244,0,0,0,63.28143,37.79a10.82854,10.82854,0,0,1,.87036-21.62244h21a10.83325,10.83325,0,0,1,0,21.6665H72.30492a18.66524,18.66524,0,0,1-1.88708,7h14.734a17.83325,17.83325,0,0,0,0-35.6665Z"/>
      </g>
    </g>
  </g>
</svg>
