<svg xmlns="http://www.w3.org/2000/svg" width="48.44444" height="49.82399" viewBox="0 0 48.44444 49.82399">
  <defs>
    <style>
      .cls-1, .cls-2 {
        fill: none;
        stroke: #f15a24;
        stroke-miterlimit: 10;
      }

      .cls-1 {
        stroke-width: 2px;
      }
    </style>
  </defs>
  <title>pot-icon</title>
  <g id="Layer_2" data-name="Layer 2">
    <g id="Layer_2-2" data-name="Layer 2">
      <g>
        <path class="cls-1" d="M44.62964,24.16659H42.18228v-2.4444H5.59754v2.4444H3.8148A3.1072,3.1072,0,0,0,1,27.5v.22223a3.1072,3.1072,0,0,0,2.8148,3.33337H5.59754V41.486c0,4.05268,2.86526,7.338,6.39977,7.338h23.7852c3.53446,0,6.39977-3.28533,6.39977-7.338V31.05556h2.44736a3.1072,3.1072,0,0,0,2.8148-3.33337V27.5A3.1072,3.1072,0,0,0,44.62964,24.16659Z"/>
        <path class="cls-2" d="M29.29028,16.68976a9.87951,9.87951,0,0,1-1.02556-7.74834c.5789-1.70385,1.41963-1.47834,1.88021-3.20625.666-2.49849-.57111-4.92344-.2564-5.21009.48577-.44243,3.70422,5.0882,2.90578,7.08041-.20714.51684-1.04733,1.86333-1.23923,2.53825-.85464,3.00583.60637,6.148.29912,8.14915C31.59781,19.96279,29.94479,17.65338,29.29028,16.68976Z"/>
        <path class="cls-2" d="M23.1091,16.68976a9.87947,9.87947,0,0,1-1.02557-7.74834c.5789-1.70385,1.41964-1.47834,1.88021-3.20625.666-2.49849-.57111-4.92344-.2564-5.21009.48577-.44243,3.70422,5.0882,2.90578,7.08041-.20714.51684-1.04733,1.86333-1.23923,2.53825-.85464,3.00583.60637,6.148.29913,8.14915C25.41663,19.96279,23.76361,17.65338,23.1091,16.68976Z"/>
        <path class="cls-2" d="M16.74341,16.68976a9.87951,9.87951,0,0,1-1.02556-7.74834c.5789-1.70385,1.41963-1.47834,1.88021-3.20625.666-2.49849-.57111-4.92344-.2564-5.21009.48577-.44243,3.70422,5.0882,2.90578,7.08041-.20714.51684-1.04733,1.86333-1.23923,2.53825-.85464,3.00583.60637,6.148.29912,8.14915C19.05094,19.96279,17.39792,17.65338,16.74341,16.68976Z"/>
      </g>
    </g>
  </g>
</svg>
